<?xml version="1.0" encoding="utf-8"?>
<!-- Generator: Adobe Illustrator 24.0.2, SVG Export Plug-In . SVG Version: 6.00 Build 0)  -->
<svg version="1.1" xmlns="http://www.w3.org/2000/svg" xmlns:xlink="http://www.w3.org/1999/xlink" x="0px" y="0px"
	 viewBox="0 0 24 24" style="enable-background:new 0 0 24 24;" xml:space="preserve">
<style type="text/css">
	.st0{fill:none;}
	.st1{fill:#ffffff;}
</style>
<g id="bounding_box">
	<rect class="st0" width="24" height="24"/>
</g>
<g id="design">
	<g>
		<g>
			<path class="st1" d="M18.5,7.37c0,0.57-0.22,1.1-0.62,1.51l-1.84,1.79L11.7,6.33l1.81-1.72c0.77-0.77,2.19-0.79,2.99,0.01
				l1.34,1.21C18.28,6.27,18.5,6.8,18.5,7.37z"/>
		</g>
		<path class="st1" d="M22,19c0,0.55-0.45,1-1,1H3c-0.55,0-1-0.45-1-1v-3c0-0.27,0.11-0.54,0.31-0.72l7.94-7.57l4.35,4.35L8.47,18
			H21C21.55,18,22,18.45,22,19z"/>
	</g>
</g>
</svg>
